<?xml version="1.0" encoding="UTF-8" standalone="no"?>
<svg width="101px" height="57px" viewBox="0 0 101 57" version="1.1" xmlns="http://www.w3.org/2000/svg" xmlns:xlink="http://www.w3.org/1999/xlink" xmlns:sketch="http://www.bohemiancoding.com/sketch/ns">
    <!-- Generator: Sketch 3.2.2 (9983) - http://www.bohemiancoding.com/sketch -->
    <title>bow</title>
    <desc>Created with Sketch.</desc>
    <defs></defs>
    <g id="Page-1" stroke="none" stroke-width="1" fill="none" fill-rule="evenodd" sketch:type="MSPage">
        <g id="bow" sketch:type="MSLayerGroup" fill="#4A4A4A">
            <g id="Page-1" sketch:type="MSShapeGroup">
                <g id="bow">
                    <g id="Page-1">
                        <g id="bow">
                            <g id="Your_Icon">
                                <path d="M97.975,28.401 C97.975,32.926 104.885,44.609 93.994,55.073 C92.185,56.81 88.365,56.935 84.65,56.067 C73.162,53.384 65.849,47.872 58.731,39.079 C57.765,38.246 57.036,37.119 56.29,36.062 C55.327,34.702 54.962,34.736 54.378,34.736 C53.56,34.736 53.392,35.971 50.326,35.971 C47.598,35.971 47.288,34.822 46.537,34.822 C45.722,34.822 45.56,35.11 45.149,35.665 C39.751,43.147 26.815,51.809 17.619,55.357 C14.051,56.735 9.152,57.253 6.659,54.653 C-4.573,43.598 1.802,32.949 1.802,28.401 C1.802,24.399 -3.956,12.336 6.456,2.399 C8.594,0.358 11.967,-0.382 15.186,0.186 C27.263,2.312 36.713,10.975 41.77,17.29 C42.682,18.429 43.749,19.491 44.637,20.671 C45.472,21.78 45.95,21.938 46.624,21.938 C47.821,21.938 47.962,20.818 50.409,20.818 C52.8,20.818 53.558,22.028 54.263,22.028 C55.159,22.028 55.51,21.706 55.898,21.098 C63.599,9.064 75.024,2.421 81.522,1.05 C85.188,0.275 91.315,-1.046 93.882,1.666 C103.984,12.323 97.975,24.801 97.975,28.401 L97.975,28.401 L97.975,28.401 Z" id="Shape"></path>
                            </g>
                        </g>
                    </g>
                </g>
            </g>
        </g>
    </g>
</svg>