<?xml version="1.0" encoding="utf-8"?>
<!-- Generator: Adobe Illustrator 14.0.0, SVG Export Plug-In . SVG Version: 6.00 Build 43363)  -->
<!DOCTYPE svg PUBLIC "-//W3C//DTD SVG 1.0//EN" "http://www.w3.org/TR/2001/REC-SVG-20010904/DTD/svg10.dtd">
<svg version="1.0" id="Layer_1" xmlns="http://www.w3.org/2000/svg" xmlns:xlink="http://www.w3.org/1999/xlink" x="0px" y="0px"
	 width="288px" height="288px" viewBox="0 0 288 288" enable-background="new 0 0 288 288" xml:space="preserve">
<g>
	<path fill-rule="evenodd" clip-rule="evenodd" fill="#000002" d="M68.484,162.884h-0.949v-13.016h0.949V162.884L68.484,162.884z
		 M82.279,162.884L82.279,162.884h-1.24l-7.956-11.885v11.885h-0.949v-13.016h1.313l7.882,11.864v-11.864h0.949L82.279,162.884
		L82.279,162.884L82.279,162.884z M99.366,150.816L99.366,150.816h-4.549v12.066h-0.949v-12.066h-4.5v-0.948h9.999v0.948H99.366
		L99.366,150.816z M111.648,162.884L111.648,162.884h-0.974v-6.479h-8.003v6.479h-0.949v-13.016h0.949v5.587h8.003v-5.587h0.974
		V162.884L111.648,162.884z M124.44,162.884L124.44,162.884h-9.39v-13.016h9.075v0.948h-8.125v4.816h7.615v0.949h-7.615v5.354h8.441
		V162.884L124.44,162.884z M142.391,153.371L142.391,153.371c-0.083-0.389-0.251-0.75-0.486-1.09
		c-0.239-0.338-0.535-0.629-0.892-0.881c-0.357-0.252-0.766-0.445-1.232-0.588c-0.461-0.143-0.961-0.215-1.492-0.215
		c-0.754,0-1.436,0.121-2.052,0.368c-0.612,0.244-1.14,0.608-1.569,1.087c-0.434,0.479-0.766,1.074-0.998,1.793
		c-0.234,0.717-0.353,1.549-0.353,2.502c0,0.947,0.117,1.787,0.353,2.51c0.231,0.726,0.563,1.334,0.998,1.824
		c0.431,0.49,0.954,0.863,1.557,1.114c0.608,0.256,1.282,0.382,2.028,0.382c1.127,0,2.056-0.252,2.786-0.759
		c0.73-0.503,1.18-1.239,1.354-2.21h0.999c-0.094,0.62-0.289,1.172-0.584,1.663c-0.292,0.485-0.662,0.896-1.107,1.229
		c-0.442,0.336-0.958,0.588-1.537,0.762c-0.576,0.175-1.204,0.264-1.877,0.264c-0.92,0-1.748-0.162-2.482-0.482
		c-0.734-0.319-1.362-0.771-1.877-1.357c-0.515-0.584-0.911-1.297-1.188-2.133c-0.28-0.836-0.417-1.769-0.417-2.807
		c0-1.029,0.138-1.953,0.417-2.781c0.277-0.822,0.678-1.524,1.197-2.104c0.519-0.583,1.146-1.028,1.88-1.342
		c0.734-0.312,1.557-0.472,2.47-0.472c0.624,0,1.224,0.091,1.788,0.271c0.568,0.184,1.078,0.438,1.533,0.771
		c0.451,0.328,0.831,0.723,1.139,1.177c0.312,0.454,0.527,0.957,0.646,1.504L142.391,153.371L142.391,153.371L142.391,153.371z
		 M147.643,162.884L147.643,162.884h-0.949v-13.016h0.949V162.884L147.643,162.884z M160.342,150.816L160.342,150.816h-4.55v12.066
		h-0.948v-12.066h-4.501v-0.948h9.999V150.816L160.342,150.816z M172.721,149.868L172.721,149.868l-5.084,7.42v5.596h-0.949v-5.596
		l-5.134-7.42h1.12l4.488,6.423l4.464-6.423H172.721z"/>
	<path fill-rule="evenodd" clip-rule="evenodd" fill="#000002" d="M86.765,129.38h-2.985l-6.396,13.67l-6.672-13.67h-2.985v17.583
		h2.934v-11.01l5.368,11.01h2.759l5.042-10.785v10.785h2.935V129.38L86.765,129.38z M101.287,129.406L101.287,129.406l-4.464,6.269
		l-4.49-6.269h-3.586l6.597,9.255v8.301h2.935v-8.301l6.597-9.255H101.287z"/>
	<linearGradient id="SVGID_1_" gradientUnits="userSpaceOnUse" x1="101.7056" y1="132.5537" x2="175.1895" y2="132.5537">
		<stop  offset="0" style="stop-color:#33150A"/>
		<stop  offset="1" style="stop-color:#FFCB05"/>
	</linearGradient>
	<path fill-rule="evenodd" clip-rule="evenodd" fill="url(#SVGID_1_)" d="M127.096,126.689c-0.31,0-0.565-0.131-0.565-0.471
		c0-0.143,0.757-1.006,0.857-1.127c0.382-0.458,0.792-1.08,0.792-1.7c0-1.59-1.973-1.743-3.157-1.743
		c-1.376,0-2.774,0.209-4.113,0.516c-1.758,0.4-3.466,0.992-5.109,1.732c-1.109,0.5-3.638,1.732-3.638,3.216
		c0,1.368,3.258,2.313,4.232,2.597c2.668,0.773,5.476,1.524,8.116,2.409c2.023,0.827,4.469,2.262,4.469,4.747
		c0,1.55-1,2.889-2.069,3.917c-2.349,2.261-5.479,3.775-8.53,4.835c-3.115,1.084-6.394,1.798-9.704,1.798
		c-2.709,0-6.972-0.421-6.972-4.002c0-2.833,2.155-5.051,4.297-6.615c2.195-1.602,4.799-2.901,7.574-2.901
		c0.762,0,1.648,0.194,1.648,1.129c0,2.466-2.902,4.411-4.781,5.492c-0.41,0.235-1.335,0.772-1.813,0.772
		c-0.216,0-0.518-0.051-0.518-0.329c0-0.417,0.753-0.845,1.062-1.019c1.454-0.812,2.854-1.898,3.667-3.387
		c0.092-0.157,0.31-0.543,0.31-0.729c0-0.098-0.171-0.095-0.236-0.095c-2.196,0-4.343,1.004-6.14,2.19
		c-1.69,1.115-3.611,2.814-3.611,5.018c0,2.33,4.057,2.401,5.606,2.401c3.266,0,6.583-0.647,9.711-1.548
		c2.583-0.744,6.566-2.137,8.117-4.511c0.289-0.443,0.496-0.944,0.496-1.478c0-2.835-5.702-4.584-7.765-5.188
		c-1.112-0.325-2.228-0.632-3.348-0.943c-1.092-0.346-2.207-0.754-3.23-1.283c-1.129-0.646-2.049-1.579-2.049-2.95
		c0-2.96,3.446-4.734,5.787-5.688c2.688-1.095,5.656-1.942,8.58-1.942c1.72,0,5.041,0.187,5.041,2.591
		c0,0.942-0.391,1.869-0.866,2.661C128.787,125.858,128.094,126.689,127.096,126.689L127.096,126.689z M136.185,142.038
		L136.185,142.038c0.942-1.878,1.934-4.285,1.934-6.397c0-0.813-0.182-1.59-0.532-2.323c-0.392-0.755-0.979-1.352-1.872-1.352
		c-1.253,0-2.191,0.666-2.894,1.662c-0.712,1.008-1.156,2.135-1.156,3.379c0,0.337,0.029,0.675,0.086,1.006
		c-1.175,1.819-2.347,4.131-2.347,6.343c0,1.214,0.487,2.071,1.791,2.071c1.993,0,3.531-1.845,4.522-3.39
		c0.527,0.283,1.094,0.422,1.695,0.422c0.929,0,1.802-0.299,2.596-0.766c0.036,1.117,0.324,2.508,1.691,2.508
		c1.131,0,2.212-1.086,2.887-1.887c0.545-0.645,1.085-1.435,1.591-2.186c-0.214,0.718-0.427,1.544-0.427,2.096
		c0,1.907,0.664,3.437,2.778,3.437c1.647,0,3.168-1.039,4.336-2.11c1.212-1.109,2.234-2.394,3.087-3.797
		c0.153-0.254,0.304-0.571,0.304-0.875c0-0.182-0.05-0.423-0.281-0.423c-0.225,0-1.248,1.384-1.385,1.561
		c-0.755,0.977-1.6,1.99-2.525,2.809c-0.762,0.672-1.854,1.471-2.922,1.471c-1,0-1.412-0.535-1.412-1.507
		c0-1.518,0.967-3.563,1.655-4.88c0.451-0.864,1.085-2.271,1.621-3.082h0.067v-0.141c0-0.361-0.141-0.67-0.396-0.924
		c-0.241-0.242-0.532-0.395-0.878-0.395c-0.331,0-0.601,0.184-0.813,0.425c-0.356,0.63-0.697,1.244-1.008,1.865
		c-0.611,1.075-3.837,6.801-5.292,6.801c-0.692,0-0.753-0.85-0.753-1.366c0-0.977,0.708-2.33,1.183-3.158
		c0.098-0.169,1.219-2.082,1.219-2.213c0-0.447-0.501-0.518-0.847-0.518c-1.237,0-2.06,1.571-2.484,2.534
		c-0.398,0.854-0.755,1.792-0.916,2.729c-0.731,0.564-1.556,0.907-2.488,0.907C137.099,142.375,136.623,142.272,136.185,142.038
		L136.185,142.038z M160.184,137.145L160.184,137.145c-0.494,1.042-0.947,2.105-1.334,3.192c1.409-1.41,2.82-2.821,4.232-4.234
		c1.102-1.042,3.605-3.335,5.23-3.335c1.112,0,1.366,0.998,1.366,1.931c0,1.601-1.392,2.856-2.604,3.696
		c-1.187,0.821-2.657,1.592-4.144,1.585c0.432,1.866,1.342,4.234,3.592,4.234c2.356,0,4.574-2.521,5.867-4.226
		c0.152-0.23,0.381-0.485,0.682-0.485c0.234,0,0.375,0.141,0.375,0.376c0,0.195-0.105,0.395-0.213,0.551
		c-0.883,1.292-2.063,2.469-3.225,3.51c-0.938,0.839-2.67,2.296-4.005,2.296c-1.526,0-2.767-1.321-3.601-2.459
		c-0.814-1.114-1.564-2.427-1.815-3.809c-0.672,0.785-1.343,1.568-2.01,2.353c-0.726,0.945-1.177,2.016-1.386,3.187l-0.014,0.073
		l-0.066,0.029c-0.362,0.166-0.744,0.248-1.144,0.248c-0.405,0-1.178-0.047-1.178-0.611c0-1.186,1.505-4.548,1.991-5.661
		c1.908-4.37,4.119-8.601,6.65-12.643c1.637-2.612,5.902-9.252,9.494-9.252c1.395,0,2.262,0.619,2.262,2.072
		c0,3.208-3.887,7.438-5.977,9.567C166.434,132.169,163.35,134.749,160.184,137.145L160.184,137.145z M133.028,136.411
		L133.028,136.411c0.016-0.637,0.144-1.257,0.414-1.842c0.308-0.667,0.783-1.236,1.568-1.236c0.608,0,0.948,0.947,1.089,1.408
		c0.209,0.674,0.324,1.371,0.324,2.077c0,1.5-0.552,3.222-1.1,4.628c-0.912-0.702-1.564-1.594-1.95-2.685
		c0.295-0.553,0.944-1.66,1.637-1.66c0.19,0,0.612-0.005,0.612-0.283c0-0.094-0.022-0.18-0.053-0.269
		c0.004-0.056,0.006-0.125,0.006-0.202v-0.044l-0.026-0.037c-0.271-0.388-0.69-0.531-1.151-0.531
		C133.861,135.735,133.399,136.04,133.028,136.411L133.028,136.411z M134.83,142.378L134.83,142.378
		c-0.297,0.577-0.772,1.105-1.236,1.545c-0.356,0.372-1.094,1.091-1.646,1.091c-0.477,0-0.565-0.395-0.565-0.801
		c0-1.12,0.771-2.887,1.288-3.99C133.229,141.088,133.98,141.796,134.83,142.378L134.83,142.378z M161.311,134.639L161.311,134.639
		c2.656-1.705,5.196-4.157,7.373-6.398c1.565-1.612,5.143-5.396,5.143-7.816c0-0.469-0.129-0.847-0.659-0.847
		c-1.086,0-2.892,1.473-3.679,2.133c-3.461,2.905-5.854,7.12-7.543,11.251C161.845,133.203,161.461,134.125,161.311,134.639
		L161.311,134.639z M161.945,138.813L161.945,138.813c0.152,0.186,0.441,0.219,0.668,0.219c1.103,0,2.199-0.585,3.074-1.207
		c0.782-0.556,1.685-1.39,1.685-2.43c0-0.33-0.046-0.792-0.472-0.792C166.034,134.604,162.734,137.998,161.945,138.813z"/>
	<g>
		<linearGradient id="SVGID_2_" gradientUnits="userSpaceOnUse" x1="220.6211" y1="143.9995" x2="178.3295" y2="143.9995">
			<stop  offset="0" style="stop-color:#33150A"/>
			<stop  offset="1" style="stop-color:#FFCB05"/>
		</linearGradient>
		<path fill-rule="evenodd" clip-rule="evenodd" fill="url(#SVGID_2_)" d="M180.813,186.118l-2.479-8.331v5.729l1.01,1.098
			c0.102,0.103,0.085,0.1,0.17,0.211l0.903,0.992c0.123,0.127,0.283,0.271,0.362,0.396h0.072l2.438-3.52
			c0.51-0.699,1.988-2.932,2.4-3.424l0.065-0.071l6.479,3.825c0.272,0.151,0.633,0.416,0.901,0.518
			c0.095-0.137,1.177-3.594,1.339-4.086c0.23-0.7,0.428-1.372,0.653-2.045c0.224-0.662,0.407-1.404,0.655-2.041l8.369,2.006
			l0.093-8.605l8.567-0.541c0.021-0.188-1.529-5.283-1.795-6.181l-0.609-2.083l8.028-3.048l-0.6-0.931
			c-0.206-0.303-0.386-0.586-0.59-0.885c-0.406-0.597-0.771-1.176-1.177-1.778c-0.18-0.269-2.312-3.392-2.359-3.589
			c0.132-0.127,0.275-0.227,0.423-0.344l4.623-3.601c0.173-0.131,1.558-1.238,1.708-1.302v-0.072
			c-0.106-0.045-0.122-0.083-0.218-0.156c-0.078-0.058-0.129-0.104-0.21-0.172l-6.206-5.065c0.043-0.183,0.188-0.325,0.298-0.473
			c0.119-0.162,0.193-0.292,0.311-0.449c0.221-0.303,0.42-0.582,0.609-0.869l3.682-5.289c-0.396-0.157-7.789-3.119-7.961-3.253
			c0.08-0.324,0.215-0.675,0.325-1.02c0.231-0.723,2.255-6.934,2.269-7.159l-8.53-0.743c-0.077-0.238,0.073-7.635,0.07-8.606
			l-8.353,1.802c-0.113-0.063-0.078-0.042-0.13-0.211c-0.021-0.072-0.048-0.17-0.075-0.264l-2.302-7.733
			c-0.179,0.035-1.634,0.88-1.89,1.026l-5.601,3.14c-0.159-0.148-4.704-6.991-4.756-7.138h-0.062
			c-0.211,0.293-0.491,0.542-0.719,0.79c-0.24,0.259-0.494,0.515-0.75,0.769c-0.246,0.243-0.213,0.262-0.353,0.407
			c-0.136,0.141-0.246,0.242-0.377,0.382c-0.468,0.5-0.661,0.639-1.085,1.151c-0.039,0.047-0.081,0.091-0.124,0.134v4.683
			l0.228,0.188c0.479,0.402,0.469,0.041-0.05,1.627c-0.028,0.085-0.095,0.314-0.178,0.588v1.087l0.485-0.271l2.045-1.137
			c0.168,0.095,0.229,0.15,0.371,0.278l1.297,1.064c0.158,0.122,0.881,0.748,0.988,0.774c-0.021,0.339,0.125,1.082,0.174,1.454
			c-0.533,0.092-1.113,0.232-1.664,0.354c-1.978,0.439-1.226,0.427-3.115-0.314c-0.1-0.04-0.332-0.128-0.581-0.229v1.373
			l1.364-0.292c0.264-0.059,0.714-0.222,0.934-0.127l3.182,1.292c0.203,0.085,0.096-0.01,0.186,0.125
			c-0.131,0.066-1.646-0.106-1.784-0.117l-3.586-0.31l-0.294-0.026v4.739l0.783,1.676c0.164,0.368,0.666,1.196,0.55,1.398
			l-1.333,1.885v3.018c0.283,0.303,0.802,0.865,0.843,0.979l-0.843,0.658v1.323l0.646,0.396c-0.215-0.019-0.43-0.029-0.646-0.033
			v1.021l0.238,0.002h0.012c0.072,0.001,0.146,0.005,0.218,0.008l0.04,0.002c0.063,0.002,0.125,0.006,0.188,0.011
			c0.023,0.001,0.049,0.003,0.072,0.006c0.049,0.004,0.098,0.008,0.146,0.013c0.04,0.003,0.079,0.007,0.117,0.012
			c0.031,0.002,0.063,0.006,0.094,0.011c0.057,0.006,0.111,0.014,0.168,0.021c0.304,0.042,0.604,0.098,0.896,0.167
			c-0.391,0.45-1,1.459-1.256,1.934c-0.363,0.676-0.207,0.583-0.041,1.321c0.104,0.464,0.178,1.017,0.207,1.485
			c0.043-0.043,0.721-1.01,1.092-1.427c0.109-0.122,0.345-0.324,0.377-0.468c0.088-0.393-0.069-2.174-0.203-2.802
			c0.217,0.057,0.429,0.118,0.638,0.188h-0.001l0.063,0.021c0.051,0.017,0.101,0.035,0.148,0.052c0.027,0.01,0.055,0.021,0.081,0.03
			c0.041,0.016,0.081,0.031,0.121,0.046c0.036,0.014,0.073,0.029,0.108,0.043c0.724,0.29,1.401,0.667,2.023,1.119
			c-0.665,0.346-2.199,1.433-2.314,1.711c-0.047,0.11-0.104,0.638-0.131,0.79c-0.098,0.532-0.24,0.976-0.371,1.463
			c0.199-0.077,0.299-0.181,0.506-0.312c0.182-0.114,0.357-0.23,0.556-0.333c0.175-0.094,0.364-0.2,0.553-0.285
			c0.267-0.121,0.42-0.115,0.526-0.362c0.307-0.71,0.664-1.71,0.834-2.554c0.037,0.029,0.074,0.058,0.111,0.087l0.045,0.035
			c0.039,0.03,0.078,0.062,0.115,0.092c0.028,0.023,0.057,0.046,0.084,0.07c0.023,0.02,0.049,0.041,0.072,0.062l0.007,0.006
			c0.509,0.436,0.972,0.922,1.378,1.455c0.04,0.052,0.079,0.104,0.117,0.157v0.001l0.012,0.014l0.01,0.014
			c0.039,0.053,0.076,0.105,0.113,0.159l0.002,0.001l0.01,0.016l0.011,0.014c0.032,0.048,0.065,0.099,0.101,0.148l0.01,0.015
			l0.01,0.015l0.01,0.015c0.029,0.045,0.059,0.09,0.087,0.136l0.011,0.015l0.008,0.016l0.011,0.015l0.01,0.016l0.011,0.018
			c-0.792,0.081-1.935,0.357-2.578,0.578c-0.295,0.103-0.423,0.497-0.761,0.996c-0.248,0.368-0.513,0.699-0.767,1.021
			c0.476-0.09,0.928-0.183,1.443-0.23c0.941-0.085,0.719,0.11,1.28-0.419c0.228-0.213,1.158-1.269,1.479-1.781l0.002,0.002
			c0.268,0.455,0.496,0.935,0.688,1.434l0.008,0.021c0.021,0.053,0.041,0.106,0.06,0.162l0.007,0.021l0.008,0.02l0.003,0.008
			c0.021,0.058,0.04,0.116,0.06,0.175l0.007,0.021l0.007,0.021v0c0.021,0.061,0.039,0.123,0.059,0.186l0.006,0.021l0.006,0.021
			c0.019,0.063,0.037,0.125,0.054,0.188l0.006,0.021c0.021,0.07,0.037,0.14,0.056,0.21l0.004,0.021l0.002,0.002
			c0.017,0.068,0.031,0.137,0.047,0.206c0.037,0.172,0.07,0.347,0.099,0.523c-0.632-0.207-2.104-0.417-2.612-0.44
			c-0.349-0.016-0.537,0.28-1.076,0.635c-0.155,0.104-0.33,0.22-0.519,0.322c-0.192,0.104-0.419,0.207-0.567,0.327
			c0.484,0.111,0.933,0.184,1.416,0.338c0.687,0.217,0.666,0.399,1.332,0.104c0.481-0.214,1.601-0.74,2.06-1.073
			c0.034,0.255,0.06,0.515,0.073,0.776l0.002,0.051c0.005,0.07,0.007,0.14,0.009,0.209l0.001,0.018
			c0.002,0.078,0.003,0.157,0.003,0.236c0,0.078-0.001,0.155-0.003,0.232l-0.001,0.026c-0.002,0.063-0.004,0.125-0.007,0.189
			c-0.002,0.032-0.004,0.065-0.006,0.097c-0.002,0.036-0.004,0.072-0.006,0.107c-0.004,0.063-0.011,0.121-0.016,0.183l-0.001,0.015
			c-0.039,0.437-0.106,0.864-0.202,1.281l-0.003,0.012l-0.011,0.045c-0.473-0.404-1.68-1.114-1.936-1.254
			c-0.649-0.355-0.558-0.186-1.276-0.035c-0.491,0.104-0.95,0.176-1.485,0.209l0.941,0.721c0.177,0.139,0.849,0.74,0.92,0.759
			c0.519,0.132,2.041-0.114,2.787-0.203c-0.018,0.066-0.035,0.134-0.055,0.198l-0.004,0.016c-0.02,0.067-0.041,0.137-0.062,0.205
			l-0.007,0.022c-0.021,0.063-0.041,0.129-0.063,0.192l-0.011,0.03c-0.021,0.062-0.042,0.122-0.064,0.183l-0.017,0.047
			c-0.021,0.055-0.041,0.107-0.062,0.162l-0.023,0.06c-0.193,0.485-0.426,0.951-0.693,1.394l-0.016,0.026
			c-0.034,0.056-0.069,0.11-0.104,0.166l-0.016,0.024c-0.036,0.055-0.072,0.109-0.109,0.164l-0.019,0.027
			c-0.036,0.053-0.072,0.105-0.11,0.158l-0.021,0.029l-0.037,0.053c-0.356-0.667-1.479-2.217-1.672-2.297
			c-0.101-0.042-0.647-0.1-0.804-0.127c-0.547-0.098-0.975-0.25-1.482-0.376c0.063,0.159,0.227,0.351,0.332,0.513l0.619,1.104
			c0.117,0.246,0.109,0.416,0.361,0.529c0.807,0.363,1.637,0.596,2.521,0.818c-0.027,0.038-0.059,0.076-0.087,0.113l-0.028,0.035
			c-0.037,0.049-0.076,0.096-0.113,0.144l-0.002,0.001c-0.35,0.425-0.733,0.816-1.149,1.176h-0.001
			c-0.038,0.033-0.076,0.065-0.115,0.1l-0.059,0.047c-0.041,0.033-0.082,0.065-0.123,0.1l-0.047,0.037
			c-0.047,0.036-0.094,0.072-0.141,0.107l-0.033,0.023c-0.051,0.038-0.103,0.075-0.152,0.112l-0.028,0.021
			c-0.054,0.037-0.106,0.074-0.161,0.111l-0.025,0.018c-0.098,0.065-0.196,0.129-0.297,0.191c-0.074-0.795-0.377-1.941-0.588-2.578
			c-0.08-0.24-0.611-0.475-1.011-0.749c-0.335-0.231-0.729-0.521-0.996-0.761c0.009,0.346,0.177,0.992,0.218,1.426
			c0.1,1.063-0.199,0.852,1.36,2.141c0.235,0.194,0.533,0.45,0.823,0.64c-0.415,0.243-0.85,0.456-1.301,0.635l-0.033,0.013
			c-0.057,0.022-0.114,0.045-0.172,0.065l-0.057,0.021c-0.049,0.018-0.098,0.034-0.146,0.051c-0.033,0.012-0.065,0.021-0.099,0.033
			c-0.035,0.012-0.07,0.022-0.106,0.034l-0.002,0.001c-0.438,0.139-0.89,0.247-1.354,0.322c0.189-0.639,0.494-2.354,0.451-2.725
			c-0.02-0.162-0.222-0.363-0.328-0.502c-0.117-0.152-0.213-0.313-0.341-0.504c-0.241-0.358-0.392-0.668-0.606-1.043
			c-0.108,0.486-0.195,0.93-0.338,1.404c-0.272,0.904-0.521,0.782,0.431,2.493l0.532,0.903c-0.162,0.022-0.326,0.043-0.491,0.057
			l-0.013,0.001c-0.055,0.005-0.107,0.011-0.162,0.013c-0.035,0.004-0.071,0.006-0.107,0.008c-0.032,0.002-0.064,0.002-0.098,0.004
			c-0.063,0.005-0.125,0.007-0.188,0.009h-0.023l-0.232,0.003v0.984c0.121-0.004,0.242-0.008,0.361-0.015l-0.361,0.205v1.688
			l0.159,0.129c0.147,0.117,0.299,0.229,0.418,0.363c-0.218,0.16-0.278,0.313-0.535,0.557l-0.042,0.043v3.904l0.527,0.795
			c0.519,0.82,0.619,0.322-0.213,1.982c-0.1,0.201-0.207,0.408-0.314,0.618v5.702l3.214-0.206c0.351-0.024,1.612-0.138,1.856-0.087
			c-0.079,0.152-0.65,0.306-0.809,0.365l-2.568,0.979c-0.235,0.077-1.186-0.182-1.693-0.314v0.979l0.68-0.249
			c1.207-0.439,0.57-0.367,2.398,0.035c0.509,0.111,1.124,0.251,1.631,0.396c0.003,0.105-0.169,1.244-0.21,1.364
			c-0.052,0.152-0.825,0.695-1.077,0.904c-0.097,0.079-0.152,0.104-0.242,0.177c-0.289,0.23-1.142,0.928-1.365,1.051l-1.813-1.061
			v2.563l1.813-1.428c0.174,0.053,0.332,0.184,0.514,0.285l1.605,0.936L180.813,186.118L180.813,186.118z M178.334,149.064
			L178.334,149.064v-4.071c0.025,0.028,0.053,0.101,0.049,0.274c-0.025,1.264-0.156,0.772,0.229,2.266
			C178.693,147.855,178.512,148.503,178.334,149.064L178.334,149.064z M183.629,146.491L183.629,146.491
			c-0.395,0.014-1.039-0.147-1.409-0.246c-0.804-0.216-0.704-0.188-1.084-0.536c-1.034-0.947-1.692-0.895-1.954-1.316
			c0.381,0.021,0.853,0.341,1.252,0.479c0.479,0.165,0.971,0.144,1.373,0.271c0.196,0.063,0.834,0.517,0.987,0.631
			c0.163,0.119,0.289,0.229,0.44,0.361C183.311,146.199,183.579,146.466,183.629,146.491L183.629,146.491z M178.723,143.161
			L178.723,143.161c0.023-0.491,0.441-0.878,0.625-1.84c0.045-0.23,0.045-0.542,0.094-0.729c0.076-0.301,0.884-1.364,1.166-1.654
			l0.222-0.2c-0.058,0.729-0.298,2.05-0.795,2.5c-0.354,0.32-0.772,0.967-0.972,1.448
			C178.932,143.003,178.979,142.994,178.723,143.161L178.723,143.161z M182.259,148.329L182.259,148.329
			c-0.454-0.216-1.196-0.739-1.567-1.071c-0.646-0.576-0.282-0.893-1.396-2.064c-0.184-0.193-0.26-0.159-0.337-0.485
			c0.489,0.108,0.535,0.795,1.948,1.545C181.393,146.51,182.184,147.957,182.259,148.329L182.259,148.329z M180.314,149.494
			L180.314,149.494c-0.213-0.191-1.151-1.576-1.201-1.996c-0.024-0.223,0.002-0.482-0.024-0.734
			c-0.103-1.009-0.483-1.367-0.44-1.871c0.221,0.152,0.188,0.211,0.289,0.53c0.414,1.313,1.004,1.522,1.125,2.027
			C180.182,147.95,180.376,149.021,180.314,149.494L180.314,149.494z M179.023,143.389L179.023,143.389
			c0.151-0.511,0.801-0.498,1.545-1.931c0.26-0.501,1.699-1.269,2.086-1.368c-0.201,0.517-1.065,1.744-1.564,1.94
			c-0.503,0.2-1.279,0.679-1.587,1.033C179.367,143.222,179.309,143.357,179.023,143.389L179.023,143.389z M178.361,143.087
			L178.361,143.087l-0.027-0.084v-4.055c0.104-0.33,0.215-0.62,0.293-0.772c0.076,0.631,0.537,1.817,0.259,2.482
			c-0.168,0.401-0.269,0.727-0.341,1.204C178.434,142.607,178.618,142.799,178.361,143.087L178.361,143.087z M179.223,143.709
			L179.223,143.709c0.129-0.248,0.219-0.196,0.512-0.29c1.633-0.522,1.175-1.005,2.662-1.262c0.42-0.074,0.959-0.143,1.429-0.134
			l-0.454,0.362c-1.846,1.297-1.538,0.648-2.914,0.987C180.043,143.477,179.622,143.729,179.223,143.709L179.223,143.709z
			 M180.273,144.014L180.273,144.014c0.971,0.045,1.36-0.364,2.008-0.256c0.756,0.125,1.225,0.336,1.896,0.514
			c-0.326,0.185-1.498,0.355-1.986,0.379c-0.551,0.026-0.991-0.417-2.023-0.465c-0.467-0.021-0.671,0.058-0.877-0.117
			C179.505,143.9,179.783,143.99,180.273,144.014L180.273,144.014z M178.334,144.358L178.334,144.358v-0.681
			c0.348-0.055,0.497,0.54,0.133,0.663C178.422,144.355,178.377,144.361,178.334,144.358L178.334,144.358z M179.113,133.568
			L179.113,133.568c0.218-0.148,1.38-0.552,1.666-0.65l0.947,1.027c0.098,0.104,0.201,0.171,0.254,0.311
			C181.079,133.897,180.117,133.663,179.113,133.568L179.113,133.568z M182.132,134.316L182.132,134.316l-0.017-0.021l1.83-0.127
			l0.729,1.659C183.908,135.21,183.053,134.7,182.132,134.316L182.132,134.316z M184.807,135.934L184.807,135.934
			c-0.005-0.01-0.007-0.021-0.01-0.03l1.764,0.417l0.25,1.818l-0.016-0.008C186.238,137.308,185.566,136.567,184.807,135.934
			L184.807,135.934z M186.857,138.227L186.857,138.227c0.529,0.268,1.066,0.673,1.615,0.927c-0.121,0.184-0.271,1.467-0.328,1.794
			l-0.014-0.011C187.837,139.965,187.404,139.055,186.857,138.227L186.857,138.227z M188.168,141.06L188.168,141.06l1.223,1.381
			l-0.809,1.566c0-0.008,0-0.017,0-0.024C188.582,142.968,188.438,141.987,188.168,141.06L188.168,141.06z M188.579,144.181
			L188.579,144.181l0.003-0.002c0.102,0.117,0.718,1.457,0.771,1.655c-0.174,0.093-0.906,0.996-1.232,1.231
			C188.402,146.148,188.563,145.184,188.579,144.181L188.579,144.181z M188.063,147.247L188.063,147.247l0.016-0.008l0.232,1.778
			c-0.132,0.104-1.285,0.758-1.55,0.862C187.313,149.076,187.752,148.191,188.063,147.247L188.063,147.247z M186.673,150.008
			L186.673,150.008l-0.282,1.801l-1.783,0.381C185.396,151.566,186.093,150.831,186.673,150.008L186.673,150.008z M184.49,152.279
			L184.49,152.279c-0.104,0.302-0.676,1.426-0.803,1.613l-1.762-0.164C182.854,153.367,183.715,152.877,184.49,152.279
			L184.49,152.279z M181.732,153.803L181.732,153.803l-1.207,1.285l-1.66-0.673C179.865,154.346,180.828,154.136,181.732,153.803
			L181.732,153.803z M188.084,175.84L188.084,175.84c0.389-0.611,0.986-1.365,1.37-1.98l2.397,0.566l1.258,8.98
			c-0.099-0.067-0.025-0.004-0.104-0.096l-0.555-0.838c-0.219-0.326-0.414-0.621-0.624-0.938l-3.453-5.193
			c-0.06-0.093-0.085-0.132-0.153-0.229C188.081,175.91,188.113,175.898,188.084,175.84L188.084,175.84z M185.751,179.13
			L185.751,179.13l-3.442-2.026c0.055-0.459,0.15-0.935,0.226-1.41l0.294-1.814c0.052-0.222,0.314-0.316,0.66-0.602l0.705-0.563
			c0.139-0.104,0.108-0.104,0.313-0.06c0.449,0.099,0.883,0.212,1.328,0.321c0.412,0.103,0.393,0.164,0.831,0.859
			c0.211,0.333,0.448,0.68,0.672,1.014c0.127,0.191,0.606,0.866,0.663,1.031c-0.094,0.166-0.174,0.256-0.277,0.404L185.751,179.13
			L185.751,179.13z M197.77,169.188L197.77,169.188l2.412-0.158c0.104,0.033,3.051,6.404,3.398,7.168
			c0.146,0.322,0.362,0.722,0.475,1.045c-0.125-0.055-0.707-0.541-0.876-0.688l-2.207-1.802c-0.128-0.093-0.272-0.229-0.437-0.362
			l-3.514-2.847L197.77,169.188L197.77,169.188z M194.363,169.389L194.363,169.389c0.121,0.141,0.182,0.151,0.318,0.268l2.295,1.871
			l-1.215,3.803c-0.847-0.154-2.4-0.574-3.377-0.807c-0.755-0.18-0.445,0.129-0.888-2.909c-0.109-0.748-0.032-0.64,0.346-1.158
			c0.193-0.265,0.509-0.687,0.646-0.945L194.363,169.389L194.363,169.389z M189.457,173.802L189.457,173.802
			c-0.287-0.017-0.906-0.198-1.217-0.272l-1.842-0.441c-0.348-0.074-0.401-0.32-0.722-0.796c-0.098-0.146-0.22-0.303-0.303-0.458
			c0.063-0.102,0.428-0.37,0.526-0.445l1.703-1.334c0.336-0.263,0.291-0.259,0.726-0.275c0.641-0.026,2.391-0.116,2.866-0.187
			c0.015,0.374,0.201,1.095,0.178,1.396c-0.012,0.127-0.739,1.138-0.924,1.405L189.457,173.802L189.457,173.802z M183.791,170.068
			L183.791,170.068l0.381-0.028c0.08,0.261,0.918,1.351,1.125,1.751c-0.006,0.009-0.018,0.009-0.021,0.021
			c-0.002,0.014-0.017,0.02-0.021,0.022l-0.159,0.14c-0.853,0.717-0.722,0.619-1.313,0.478c-0.229-0.056-0.44-0.104-0.686-0.163
			c0.024-0.393,0.127-0.852,0.189-1.234c0.037-0.226,0.063-0.412,0.096-0.619c0.021-0.153,0.003-0.174,0.098-0.244
			c0.004-0.004,0.104-0.047,0.115-0.051c0.01-0.006,0.021-0.01,0.03-0.015c0.01-0.006,0.021-0.012,0.03-0.017
			c0.099-0.055,0.039-0.02,0.087-0.059l-0.287,0.002c0.011-0.162,0.083-0.677,0.147-0.791l0.459,0.663
			C183.92,169.986,183.896,169.973,183.791,170.068L183.791,170.068z M190.934,167.489L190.934,167.489
			c0.238-0.224,0.283-0.257,0.644-0.375c0.118,0.135,0.258,0.208,0.388,0.325c0.221,0.199,1.113,0.871,1.215,1.021
			c-0.031,0.086-0.228,0.354-0.283,0.431c-0.457,0.619-0.283,0.603-0.813,0.623l-0.801,0.051c-0.135-0.035-0.096-0.17-0.133-0.469
			C191.09,168.628,190.949,167.895,190.934,167.489L190.934,167.489z M184.152,170.018L184.152,170.018
			c0.025-0.145-0.102-0.045,0.334-0.215l1.283-0.486c0.602-0.224,1.148-0.438,1.711-0.648l2.967-1.124
			c0.171-0.065,0.31-0.157,0.434-0.096c-0.102,0.138-0.475,0.395-0.641,0.521c-0.23,0.176-0.428,0.332-0.659,0.521l-0.646,0.492
			c-0.211,0.16-0.449,0.343-0.66,0.521c-0.383,0.327-0.357,0.278-0.832,0.305C186.469,169.859,185.018,170.016,184.152,170.018
			L184.152,170.018z M190.794,166.527L190.794,166.527l0.586,0.447c0.006,0.006,0.017,0.02,0.021,0.024s0.016,0.017,0.021,0.024
			c-0.136,0.145-0.266,0.252-0.521,0.297L190.794,166.527L190.794,166.527z M194.363,169.389L194.363,169.389l-1.113-0.918
			l1.781-2.589c0.136-0.196,0.47-0.257,0.736-0.358l2.389-0.892c0.178,0.25,0.34,0.729,0.488,1.021
			c0.205,0.4,0.068,0.471-0.149,1.166l-0.746,2.315L194.363,169.389L194.363,169.389z M204.263,164.752L204.263,164.752
			l-0.036,3.965c-0.236,0.104-3.397,0.221-3.961,0.283c-0.123-0.162-1.207-2.542-1.367-2.885c-0.117-0.252-0.014-0.413,0.063-0.647
			c0.523-1.614,0.124-1.196,1.639-1.778c0.7-0.27,0.398-0.258,1.237,0.08L204.263,164.752L204.263,164.752z M204.314,162.259
			L204.314,162.259l2.317-0.856c0.272,0.306,0.478,0.539,0.751,0.826l1.693,1.893c0.068,0.084,0.133,0.136,0.205,0.215l1.886,2.08
			c0.29,0.332,1.471,1.564,1.525,1.708l-2.133-0.849c-1.876-0.789-3.888-1.549-5.76-2.338c-0.174-0.074-0.476-0.144-0.503-0.272
			L204.314,162.259L204.314,162.259z M199.727,162.936L199.727,162.936c-0.029,0.193-0.303,1.09-0.39,1.18
			c-0.075,0.076-0.94,0.359-1.129,0.457c-0.065-0.074-0.005,0.006-0.071-0.1l-0.462-0.972c-0.335-0.692-0.513-0.86-0.114-1.205
			c0.267-0.231,0.275-0.171,1.004,0.146C198.962,162.614,199.386,162.723,199.727,162.936L199.727,162.936z M191.531,167.063
			L191.531,167.063c0.054-0.15,1.555-1.275,1.744-1.416c0.117-0.084,0.228-0.176,0.354-0.277c0.245-0.195,0.47-0.355,0.714-0.553
			l1.775-1.387c0.283-0.201,0.857-0.713,1.105-0.828c-0.021,0.203-0.897,1.375-1.002,1.521c-0.332,0.48-0.697,1.006-1.041,1.488
			c-0.164,0.229-0.457,0.271-0.849,0.416c-0.321,0.121-0.601,0.229-0.916,0.351C193.113,166.494,191.79,167.045,191.531,167.063
			L191.531,167.063z M197.213,162.514L197.213,162.514l-0.324-0.705c0.15-0.007,0.646,0.187,0.743,0.282
			C197.488,162.33,197.499,162.354,197.213,162.514L197.213,162.514z M183.564,169.072L183.564,169.072
			c-0.133-0.111-1.453-2.146-1.66-2.456c-0.553-0.829-1.111-1.625-1.653-2.479c-0.271-0.428-0.577-0.84-0.827-1.242
			c-0.123-0.197-0.037-0.213,0.188-0.666c0.559-1.119,1.164-2.408,1.724-3.459l0.758,0.617c0.084,0.074,0.157,0.143,0.253,0.213
			l1.305,1.058c0.091,0.079,0.135,0.112,0.259,0.206l0.767,0.626c0.161,0.128,0.133,0.065,0.09,0.315
			C184.607,162.74,183.634,168.938,183.564,169.072L183.564,169.072z M189.716,158.846L189.716,158.846
			c-0.024,0.322,0.667,4.891,0.763,5.647c0.053,0.409,0.271,1.547,0.242,1.88l-4.775-3.879c-0.145-0.11-0.219-0.2-0.367-0.307
			c-0.207-0.149-0.53-0.465-0.729-0.592c-0.014-0.266,0.625-4.186,0.721-4.428c0.273,0.137,0.666,0.275,0.992,0.407L189.716,158.846
			L189.716,158.846z M204.314,162.259L204.314,162.259c-0.295,0.071-1.846,0.692-2.272,0.851c-0.599,0.221-0.784,0.399-1.141,0.248
			c-0.255-0.109-0.894-0.325-1.099-0.465c0.113-0.502,0.34-1.082,0.491-1.572c0.09-0.289,0.167-0.494,0.245-0.77
			c0.074-0.261,0.184-0.501,0.237-0.767c0.355-0.199,2.063-1.65,2.566-1.968c0.114,0.064,0.373,0.379,0.509,0.521
			c0.269,0.285,0.297,0.427,0.524,0.522L204.363,157c0.065-0.032,0.02-0.006,0.08-0.048c0.01-0.007,0.039-0.028,0.051-0.036
			c0.045-0.034,0.067-0.061,0.113-0.098c0.09-0.074,0.129-0.094,0.217-0.164c0.153-0.118,0.285-0.229,0.447-0.354
			c0.688-0.525,0.481-0.474,1.068-0.425c0.491,0.041,0.984,0.083,1.441,0.125c0.378,0.036,1.135,0.054,1.451,0.127l1.121,3.829
			c-0.582,0.195-1.297,0.479-1.863,0.704c-0.282,0.11-1.617,0.653-1.858,0.675c-0.103-0.098-0.187-0.186-0.294-0.299l-0.846-0.926
			c-0.122-0.123-0.146-0.194-0.27-0.322c-0.104-0.107-0.189-0.198-0.289-0.301c-0.215-0.225-0.447-0.53-0.601-0.62L204.314,162.259
			L204.314,162.259z M200.776,159.784L200.776,159.784c-0.206,0.094-2.278,1.767-2.665,2.053c-0.236,0.177-0.209,0.222-0.373,0.239
			c0.019-0.168,0.125-0.23,0.227-0.385c0.704-1.067,1.604-2.266,2.342-3.354c0.166-0.248,0.343-0.485,0.521-0.745
			c0.155-0.228,0.909-1.35,1.046-1.441C201.939,156.385,200.812,159.368,200.776,159.784L200.776,159.784z M202.255,155.52
			L202.255,155.52l2.069,0.188c0.121,0.183,0.051,0.142,0.051,0.144l0.003,0.504c-0.002,0.233-0.038,0.408-0.015,0.646
			c-0.164,0.034-0.812,0.644-1.026,0.742c-0.146-0.21-0.279-0.343-0.466-0.534l-0.453-0.518c-0.079-0.088-0.43-0.41-0.45-0.514
			C201.926,155.963,202.191,155.678,202.255,155.52L202.255,155.52z M179.749,155.957L179.749,155.957
			c0.228-0.227,0.599-0.658,0.819-0.813l2.082,0.83c-0.096,0.342-1.178,2.324-1.303,2.719c-0.15-0.061-1.293-0.995-1.506-1.189
			l-0.859-0.697L179.749,155.957L179.749,155.957z M201.299,155.441L201.299,155.441l0.82,0.065
			c-0.026,0.122-0.043,0.21-0.104,0.323l-0.209,0.23L201.299,155.441L201.299,155.441z M189.716,158.846L189.716,158.846
			c-0.073-0.863-0.317-2.356-0.457-3.332c-0.038-0.266-0.155-0.881-0.134-1.125l4.393,0.387l0.148,0.211
			c0.041,0.089,0.055,0.134,0.086,0.209c0.064,0.154,0.141,0.272,0.206,0.426l1.208,2.587c0.555,1.127,1.057,2.315,1.622,3.458
			c-0.244-0.044-1.445-0.57-1.8-0.709C194.521,160.771,189.995,158.891,189.716,158.846L189.716,158.846z M183.742,153.922
			L183.742,153.922l2.262,0.2c-0.057,0.485-0.497,2.696-0.445,2.976c-0.225-0.02-2.543-0.98-2.836-1.123L183.742,153.922
			L183.742,153.922z M188.654,151.363L188.654,151.363c0.043,0.475,0.438,2.76,0.379,2.99c-0.25-0.004-2.926-0.209-2.948-0.299
			c-0.06-0.234,0.319-2.172,0.347-2.229L188.654,151.363L188.654,151.363z M208.574,153.741L208.574,153.741
			c0.158-0.181,0.939-0.729,1.202-0.945c0.097-0.078,0.12-0.104,0.234-0.188c0.149-0.112,0.358-0.244,0.463-0.385
			c0.47,0.231,1.483,0.873,1.988,1.172c0.658,0.393,1.308,0.76,1.965,1.158c0.198,0.12,3.825,2.244,3.884,2.33l-9.055-0.781
			L208.574,153.741L208.574,153.741z M204.43,152.771L204.43,152.771c-0.005-0.455,0.051-0.418,0.266-0.719l1.612-2.307
			c0.191,0.068,0.735,0.427,0.97,0.566c0.303,0.183,0.265,0.08,0.369,0.438l0.868,2.948c-0.139,0.177-1.567,1.257-1.771,1.413
			c-0.166,0.127-0.796,0.654-0.923,0.678c-0.213,0.037-1.123-0.094-1.417-0.107L204.43,152.771L204.43,152.771z M202.255,155.52
			L202.255,155.52l-0.083-0.049c0.355-1.133,0.761-2.291,1.104-3.439c0.177-0.594,0.353-1.133,0.553-1.727l0.52-1.594
			c0.061-0.121,0.003-0.021,0.053-0.086c0.146,0.205,0.045,0.865,0.033,1.109c-0.03,0.686,0.032,1.576-0.021,2.246
			c-0.029,0.352,0.055,0.315-0.068,0.525c-0.388,0.658-1.667,2.282-2.049,2.928C202.248,155.514,202.286,155.426,202.255,155.52
			L202.255,155.52z M191.702,150.688L191.702,150.688c0.548-0.133,4.12-0.931,4.397-0.92l3.17,3.535
			c0.235,0.245,1.792,1.91,1.891,2.098l-7.574-0.652L191.702,150.688L191.702,150.688z M188.374,149.061L188.374,149.061
			c0.131-0.117,1.81-1.063,1.979-1.109c0.107,0.15,1.239,2.568,1.27,2.724l-2.952,0.636L188.374,149.061L188.374,149.061z
			 M208.359,150.919L208.359,150.919c-0.795-0.487-0.729-0.305-0.877-0.812c-0.121-0.414-0.291-0.892-0.388-1.303
			c-0.037-0.154-0.018-0.171,0.079-0.3l0.52-0.747c0.31-0.441,0.334-0.604,0.598-0.662c0.516-0.115,2.896-0.654,3.15-0.654
			l2.184,3.293c-0.158,0.189-2.98,2.297-3.101,2.449L208.359,150.919L208.359,150.919z M206.67,147.454L206.67,147.454
			c0.063,0.254,0.386,1.093,0.311,1.274l-0.684,0.949c-0.375-0.146-1.586-0.998-1.813-1.018c0-0.719,0.002-0.283,0.106-0.764
			L206.67,147.454L206.67,147.454z M204.458,147.941L204.458,147.941c0,0.319-0.022,0.343-0.081,0.588
			c-0.188-0.055-0.584-0.307-0.729-0.426L204.458,147.941L204.458,147.941z M193.104,146.402L193.104,146.402
			c0.101-0.114,2.295-1.313,2.623-1.502c1.311-0.741,1.084-0.789,1.644-0.453l3.555,2.099c0.45,0.271,0.849,0.507,1.293,0.771
			l1.112,0.66c0.149,0.103,0.098,0.164,0.134,0.103c0.005-0.009,0.018,0.017,0.026,0.026l-7.459,1.603
			c-0.062-0.19-1.123-1.233-1.286-1.453c-0.214-0.285-1.067-1.137-1.302-1.44C193.338,146.68,193.195,146.572,193.104,146.402
			L193.104,146.402z M189.418,145.761L189.418,145.761c0.279-0.19,1.352-1.478,1.568-1.59l2.014,2.222l-2.628,1.467
			C190.232,147.645,189.441,145.921,189.418,145.761L189.418,145.761z M211.429,146.371L211.429,146.371
			c-0.139-0.287-0.474-0.734-0.663-1.021c-0.109-0.164-0.658-0.906-0.637-1.047c0.018-0.104,0.26-0.393,0.344-0.513l0.69-0.996
			c0.103-0.148,0.243-0.322,0.319-0.48l8.846,2.15L211.429,146.371L211.429,146.371z M208.199,141.505L208.199,141.505
			c0.055,0.176,0.421,0.689,0.535,0.855l1.11,1.674c0.134,0.199,0.24,0.237,0.12,0.422c-0.09,0.141-0.19,0.268-0.279,0.402
			c-0.382,0.558-0.746,1.067-1.147,1.637c-0.111,0.158-0.192,0.283-0.291,0.422c-0.179,0.248-0.081,0.182-0.425,0.252
			c-0.354,0.074-0.782,0.188-1.137,0.242l-0.928-3.13l-0.18,0.476c-0.047,0.145-0.096,0.285-0.146,0.445
			c-0.101,0.314-0.187,0.584-0.283,0.895c-0.101,0.314-0.19,0.606-0.299,0.928c-0.082,0.246-0.207,0.762-0.324,0.86
			c-0.067-0.124,0.036-6.498,0.036-7.221h0.108l0.932,3.186c0.039,0.142,0.061,0.322,0.162,0.419l0.984-3.09L208.199,141.505
			L208.199,141.505z M190.438,140.361L190.438,140.361c0.312,0.083,2.215,1.344,2.616,1.521c-0.092,0.176-0.604,0.652-0.804,0.851
			c-0.116,0.117-0.127,0.167-0.227,0.281l-1.037,1.058l-1.543-1.687L190.438,140.361L190.438,140.361z M193.141,141.892
			L193.141,141.892c0.067-0.192,1.146-1.181,1.353-1.43c0.458-0.546,0.704-0.732,1.133-1.229c0.078-0.09,0.106-0.104,0.19-0.189
			c0.141-0.143,0.27-0.281,0.354-0.409l7.415,1.795L197,144.14c-0.109,0.019-1.119-0.617-1.301-0.721
			c-0.45-0.257-0.862-0.518-1.299-0.768L193.141,141.892L193.141,141.892z M203.747,140.424L203.747,140.424
			c0.153-0.152,0.024-0.049,0.349-0.229c0.145-0.079,0.188-0.123,0.346-0.173c0.127,0.221,0.096,0.299,0.096,0.592L203.747,140.424
			L203.747,140.424z M204.596,139.896L204.596,139.896c0.165-0.048,0.301-0.155,0.466-0.25l0.925-0.51
			c0.162-0.093,0.291-0.174,0.449-0.244l0.648,0.997c0.059,0.191-0.28,0.989-0.331,1.247c-0.41-0.057-1.093-0.261-1.566-0.365
			l-0.409-0.105C204.518,140.555,204.587,140.132,204.596,139.896L204.596,139.896z M208.199,141.505L208.199,141.505l-0.481-0.739
			c-0.091-0.133-0.146-0.231-0.235-0.358c-0.439-0.624-0.313-0.457-0.073-1.243c0.317-1.054,0.186-0.962,0.625-1.188l1.134-0.638
			c0.235-0.132,0.514-0.285,0.759-0.423c0.209-0.118,0.55-0.335,0.756-0.407c0.366,0.25,1.125,0.944,1.558,1.253
			c0.146,0.104,0.238,0.213,0.387,0.329l1.126,0.931c-0.438,0.604-1.937,2.854-2.268,3.235c-0.307-0.003-1.271-0.278-1.645-0.366
			l-1.218-0.296C208.49,141.563,208.341,141.524,208.199,141.505L208.199,141.505z M188.842,136.875L188.842,136.875l2.93,0.715
			l-1.332,2.688c-0.23-0.078-0.73-0.424-0.981-0.569c-0.195-0.111-0.812-0.493-0.991-0.544L188.842,136.875L188.842,136.875z
			 M189.304,133.834L189.304,133.834l-0.487,2.978c-0.031,0.003-2.182-0.422-2.239-0.57l-0.302-2.211L189.304,133.834
			L189.304,133.834z M193.811,133.539L193.811,133.539l7.606-0.477c-0.11,0.237-1.105,1.121-1.317,1.408
			c-0.186,0.25-1.57,1.654-1.969,2.083l-0.645,0.705c-0.424,0.447-0.914,0.888-1.313,1.348l-4.314-1.037
			C191.979,137.109,193.755,133.871,193.811,133.539L193.811,133.539z M204.65,132.866L204.65,132.866
			c0.23-0.024,1.343-0.124,1.494-0.061l2.58,2.128c-0.222,0.763-0.493,1.543-0.752,2.353c-0.07,0.22-0.128,0.391-0.193,0.607
			c-0.106,0.348-0.055,0.223-0.363,0.396c-0.229,0.127-0.789,0.488-1.012,0.536l-1.811-2.688c-0.016,0.53,0.032,3.613-0.084,3.799
			c-0.128-0.139-1.342-4.432-1.582-5.218c-0.098-0.321-0.48-1.476-0.49-1.701c0.143,0.017,0.224,0.217,0.298,0.333
			c0.306,0.456,1.676,2.575,1.887,2.777L204.65,132.866L204.65,132.866z M201.55,133.017L201.55,133.017
			c0.128-0.216,0.378-0.377,0.563-0.597c0.14,0.187,0.223,0.278,0.25,0.562L201.55,133.017L201.55,133.017z M204.653,131.556
			L204.653,131.556l-0.003,1.311c-0.19-0.034-1.928,0.074-2.102,0.114c-0.191-0.225-0.246-0.334-0.333-0.662
			c0.397-0.492,1.011-1.067,1.454-1.543c0.165,0.136,0.313,0.247,0.483,0.396L204.653,131.556L204.653,131.556z M183.945,134.167
			L183.945,134.167c-0.109-0.355-0.739-1.563-0.959-2.088c0.291-0.139,2.608-1.024,2.836-1.063l0.402,2.991L183.945,134.167
			L183.945,134.167z M209.521,132.583L209.521,132.583c0.275-0.089,3.926-0.282,4.537-0.319c1.102-0.069,3.631-0.174,4.545-0.285
			c-0.223,0.186-0.714,0.417-0.981,0.57l-5.964,3.356c-0.311,0.176-0.655,0.385-0.976,0.533l-0.487-0.386
			c-0.139-0.118-0.354-0.299-0.489-0.398c-0.182-0.135-0.306-0.261-0.488-0.395c-0.14-0.1-0.358-0.273-0.438-0.433
			C208.857,134.724,209.421,132.899,209.521,132.583L209.521,132.583z M179.287,131.18L179.287,131.18
			c0.064-0.103,0.001-0.019,0.088-0.097l2.295-1.76c0.163,0.509,1.184,2.445,1.254,2.738l-2.146,0.803L179.287,131.18
			L179.287,131.18z M204.653,131.556L204.653,131.556c0.124-0.875-0.092-1.727,0.136-1.966l1.005-1.062
			c0.146-0.144,0.271-0.281,0.416-0.428l0.397-0.447c0.126-0.152,0.273-0.254,0.39-0.407c0.217,0.04,1.563,0.606,1.866,0.733
			c0.305,0.127,1.66,0.643,1.826,0.755c-0.003,0.132-1.099,3.597-1.186,3.744c-0.079,0.084-0.601,0.092-0.721,0.098l-2.233,0.138
			c-0.342,0.017-0.354,0.107-0.61-0.124L204.653,131.556L204.653,131.556z M193.811,133.539L193.811,133.539l-4.473,0.259
			l0.71-4.403l7.115-2.686c-0.068,0.25-0.306,0.654-0.427,0.9l-1.258,2.539c-0.297,0.561-0.552,1.119-0.846,1.685L193.811,133.539
			L193.811,133.539z M201.111,128.655L201.111,128.655c0.061,0.297,0.174,0.618,0.26,0.913c0.096,0.329,0.175,0.584,0.271,0.909
			c0.094,0.318,0.505,1.627,0.518,1.844c-0.162-0.07-0.9-1.258-1.049-1.481l-1.986-2.988c-0.172-0.255-0.938-1.357-0.991-1.543
			C198.464,126.43,200.773,128.499,201.111,128.655L201.111,128.655z M197.898,126.037L197.898,126.037
			c0.039,0.11,0.104,0.191,0.16,0.277l-0.787,0.283l0.379-0.714C197.771,125.946,197.773,125.972,197.898,126.037L197.898,126.037z
			 M201.111,128.655L201.111,128.655l-0.891-3.121c0.368-0.149,0.764-0.292,1.137-0.435c0.301-0.117,0.272-0.054,0.575,0.066
			c0.699,0.276,2.175,0.922,2.765,1.116c0,0.908-0.027,1.83-0.026,2.705c0,0.668,0.093,0.631-0.356,1.056
			c-0.3,0.287-0.436,0.558-0.686,0.67l-1.891-1.555C201.507,128.98,201.316,128.795,201.111,128.655L201.111,128.655z
			 M197.898,126.037L197.898,126.037c-0.145-0.307-0.263-0.191-0.092-0.517l0.813-1.682c0.33,0.081,0.926,0.417,1.179,0.429
			l0.363,1.22c-0.082,0.077-1.791,0.735-1.963,0.768C198.063,126.18,198.012,126.102,197.898,126.037L197.898,126.037z
			 M181.665,129.23L181.665,129.23c-0.17-0.239-1.079-2.311-1.324-2.798l-0.501-1.064c-0.066-0.151-0.056-0.197,0.032-0.321
			l3.409-4.86c0.156-0.228,0.275-0.403,0.432-0.624c0.135-0.19,0.273-0.382,0.432-0.604l1.041,7.54l-0.125,0.106
			c-0.037,0.032-0.068,0.058-0.115,0.095c-0.096,0.081-0.127,0.106-0.211,0.167c-0.148,0.109-0.277,0.213-0.426,0.333
			c-0.3,0.237-0.563,0.453-0.875,0.685C183.115,128.121,181.891,129.123,181.665,129.23L181.665,129.23z M187.504,124.747
			L187.504,124.747c0.236-0.193,0.498-0.374,0.742-0.565c0.604-0.477,1.656-1.333,2.252-1.754c0.168-0.119,0.582-0.501,0.74-0.558
			c-0.074,0.784-0.864,5.416-1.006,6.238c-0.041,0.25-0.09,0.546-0.129,0.802c-0.06,0.394,0.021,0.438-0.326,0.558l-3.937,1.49
			l-0.608-4.442L187.504,124.747L187.504,124.747z M204.741,123.801L204.741,123.801c-0.338,0.07-0.943,0.342-1.269,0.466
			c-0.384,0.146-0.808,0.301-1.222,0.463c-0.693,0.269-0.551,0.321-1.253,0.023l-1.17-0.476c-0.004-0.013-0.02-0.008-0.03-0.011
			c0.006-0.216-0.28-1.069-0.356-1.331c-0.094-0.316-0.187-0.371-0.028-0.664l1.388-2.818l3.98,0.343L204.741,123.801
			L204.741,123.801z M195.587,122.574L195.587,122.574l1.052,1.605c0.12,0.189,0.99,1.405,1.008,1.595
			c-0.131-0.042-0.596-0.44-0.74-0.557l-1.043-0.855c-0.127-0.09-0.209-0.188-0.342-0.291l-2.812-2.292
			c-0.104-0.083-0.634-0.477-0.646-0.564C192.283,121.154,195.059,122.45,195.587,122.574L195.587,122.574z M191.313,121.719
			L191.313,121.719c-0.002-0.057,0.082-0.688,0.111-0.734c0.053-0.081-0.047-0.086,0.158-0.023c0.165,0.051,0.27,0.155,0.368,0.266
			C191.788,121.385,191.48,121.625,191.313,121.719L191.313,121.719z M204.741,123.801L204.741,123.801
			c0.252-0.05,1.774-0.657,2.151-0.796c0.728-0.268,1.422-0.548,2.108-0.801c0.735-0.271,1.44-0.553,2.14-0.813l2.112-0.79
			l-1.942,2.053c-0.08,0.078-0.136,0.125-0.205,0.217c-0.294,0.388-2.32,2.395-2.521,2.668c-0.265,0.36-1.091,1.108-1.483,1.552
			c-0.007,0.007-0.015,0.018-0.021,0.023l-0.045,0.047c-0.003-0.007-0.015,0.016-0.024,0.028l-2.284-0.945
			C204.768,125.534,204.794,124.508,204.741,123.801L204.741,123.801z M195.587,122.574L195.587,122.574
			c-0.163-0.378-1.705-2.508-1.767-2.738c0.283-0.219,0.524-0.402,0.8-0.627c0.192-0.16,0.249-0.254,0.457-0.251
			c0.547,0.007,2.407,0.243,3.243,0.287l0.863,2.938c0.108,0.33,0.104,0.273-0.05,0.57l-0.38,0.758
			c-0.027,0.058-0.04,0.088-0.068,0.145l-0.07,0.13L195.587,122.574L195.587,122.574z M191.462,120.77L191.462,120.77
			c0.009-0.25,0.287-1.943,0.368-2.092c0.256,0.027,0.468,0.046,0.717,0.065c0.516,0.04,0.465-0.016,0.587,0.167
			c0.104,0.156,0.198,0.303,0.304,0.458c0.094,0.139,0.221,0.307,0.301,0.467c-0.008,0.007-0.02,0.017-0.024,0.021l-1.09,0.857
			C192.074,121.174,192.05,121.274,191.462,120.77L191.462,120.77z M188.548,118.4L188.548,118.4
			c0.006,0.007,0.015,0.018,0.019,0.021l2.539,2.098c0.338,0.311,0.269,0.105,0.301,0.336c-1.541-0.579-3.475-1.406-5.051-2.042
			c-0.317-0.128-1.436-0.542-1.635-0.691C184.861,118.027,188.148,118.352,188.548,118.4L188.548,118.4z M197.6,116.85L197.6,116.85
			c-0.189,0.106-0.429,0.345-0.633,0.489c-0.645,0.453-1.261,1.021-1.896,1.48c-0.27,0.196-1.976-0.075-1.976-0.076
			c-0.133-0.069-0.835-1.203-0.917-1.324c-0.207-0.307-0.137-0.251-0.035-0.897c0.053-0.345,0.104-0.639,0.156-0.977
			c0.053-0.35,0.111-0.657,0.16-0.982c0.118-0.788,0.052-0.692,0.346-0.754c0.635-0.135,1.213-0.261,1.84-0.394
			c0.578-0.123,1.246-0.249,1.825-0.398L197.6,116.85L197.6,116.85z M188.548,118.4L188.548,118.4l-2.247-1.85
			c-0.113-0.086-0.195-0.151-0.289-0.257c0.068-0.136,0.203-0.31,0.303-0.455c0.131-0.187,0.399-0.684,0.598-0.754l3.229-0.678
			l1.262,1.895c0.127,0.193,0.597,0.8,0.59,0.99c-0.016,0.398-0.249,1.02-0.186,1.357
			C191.129,118.639,188.938,118.338,188.548,118.4L188.548,118.4z M197.652,116.831L197.652,116.831
			c0.558-0.344,3.126-2.47,4.029-3.127l1.35-1.054c0.609-0.447,1.158-0.919,1.773-1.363c-0.121,0.34-0.332,0.711-0.496,1.038
			c-0.437,0.87-3.4,6.937-3.537,7.093c-0.311,0.004-2.191-0.148-2.404-0.213C198.279,119.081,197.672,117.053,197.652,116.831
			L197.652,116.831z M183.521,114.301L183.521,114.301l-0.465-3.374l3.459-1.927c0.158,0.152,0.439,0.61,0.569,0.818
			c0.453,0.72,1.24,1.787,1.646,2.483l-1.416,2.048c-0.588,0.845-0.412,0.713-0.912,0.815c-0.481,0.098-0.986,0.204-1.426,0.305
			c0.088,0.154,0.748,0.647,0.951,0.814c-0.105,0.305-0.994,1.374-1.171,1.755l-0.374-0.029l0.145,0.099
			c0.039,0.02,0.07,0.03,0.117,0.049l-0.484,0.688l-0.117-0.817l0.264-0.038c0.006-0.014,0.023-0.005,0.029,0l-0.309-0.14
			l-0.229-1.59c-0.021-0.17-0.077-0.337-0.024-0.496l1.195-0.26c-0.105-0.17-0.21-0.198-0.367-0.336l-0.901-0.743
			c-0.009-0.008-0.087-0.069-0.095-0.075C183.538,114.305,183.602,114.338,183.521,114.301L183.521,114.301z M181.773,101.917
			L181.773,101.917l1.256,9.025c-0.161,0.053-2.049,1.121-2.104,1.189l-0.993-0.765c-0.332-0.279-0.604-0.528-0.953-0.774
			L181.773,101.917L181.773,101.917z M190.128,114.354L190.128,114.354c-0.063-0.16-0.284-0.454-0.388-0.611
			c-0.143-0.212-0.271-0.405-0.406-0.608c-0.646-0.965-0.611-0.776-0.298-1.197c0.584-0.78,1.098-1.596,1.646-2.359
			c0.565-0.787,1.082-1.561,1.653-2.353l1.631-2.305c0.004-0.015,0.019-0.015,0.034-0.021l-1.447,8.936L190.128,114.354z"/>
		<rect x="177.753" y="100.336" fill-rule="evenodd" clip-rule="evenodd" fill="#3F1E0C" width="1.085" height="87.328"/>
	</g>
	<path fill-rule="evenodd" clip-rule="evenodd" fill="#58595B" d="M70.016,168.558c0.375,0.16,0.659,0.372,0.848,0.638
		c0.191,0.265,0.287,0.579,0.287,0.941c0,0.529-0.169,0.957-0.507,1.281c-0.337,0.324-0.784,0.486-1.342,0.486
		c-0.455,0-0.835-0.115-1.143-0.348c-0.307-0.233-0.514-0.563-0.623-0.99l0.623-0.308c0.085,0.35,0.224,0.614,0.417,0.795
		c0.192,0.18,0.434,0.27,0.726,0.27c0.344,0,0.623-0.099,0.836-0.297c0.212-0.198,0.319-0.457,0.319-0.774
		c0-0.258-0.074-0.481-0.223-0.672c-0.148-0.191-0.371-0.352-0.671-0.483l-0.702-0.3c-0.383-0.16-0.67-0.365-0.856-0.618
		c-0.188-0.252-0.283-0.555-0.283-0.906c0-0.41,0.152-0.749,0.458-1.017c0.305-0.268,0.693-0.402,1.167-0.402
		c0.346,0,0.647,0.074,0.9,0.221c0.254,0.147,0.452,0.364,0.593,0.652l-0.567,0.361c-0.128-0.224-0.273-0.389-0.433-0.497
		c-0.16-0.109-0.341-0.164-0.543-0.164c-0.258,0-0.469,0.079-0.633,0.236c-0.165,0.157-0.246,0.357-0.246,0.603
		c0,0.204,0.063,0.382,0.189,0.531c0.125,0.15,0.322,0.282,0.586,0.397L70.016,168.558L70.016,168.558z M72.34,171.76v-5.77h0.686
		v2.219h3.066v-2.219h0.694v5.77h-0.694v-2.896h-3.066v2.896H72.34L72.34,171.76z M78.45,171.76v-5.77h0.686v5.77H78.45
		L78.45,171.76z M80.807,171.76v-5.995l4.22,4.608v-4.383h0.653v5.995l-4.22-4.56v4.334H80.807L80.807,171.76z M87.334,171.76v-5.77
		h3.042v0.63H88.02v1.653h2.356v0.638H88.02v2.211h2.356v0.638H87.334L87.334,171.76z M94.17,165.99h0.694v3.591
		c0,0.584,0.124,1.011,0.373,1.284c0.249,0.272,0.637,0.41,1.168,0.41s0.919-0.138,1.168-0.41c0.249-0.273,0.373-0.7,0.373-1.284
		v-3.591h0.694v3.591c0,0.779-0.186,1.363-0.557,1.751c-0.373,0.387-0.932,0.581-1.68,0.581c-0.746,0-1.304-0.194-1.677-0.581
		c-0.371-0.388-0.557-0.972-0.557-1.751V165.99L94.17,165.99z M100.95,169.169v2.591h-0.669v-5.77h1.209
		c0.423,0,0.735,0.023,0.934,0.067c0.201,0.045,0.374,0.119,0.521,0.221c0.185,0.131,0.328,0.311,0.432,0.539
		s0.156,0.481,0.156,0.76c0,0.279-0.053,0.532-0.156,0.762c-0.104,0.229-0.247,0.408-0.432,0.539
		c-0.146,0.104-0.32,0.18-0.518,0.225c-0.199,0.044-0.511,0.066-0.937,0.066h-0.192H100.95L100.95,169.169z M100.95,168.548h0.347
		c0.587,0,0.984-0.068,1.187-0.207c0.203-0.137,0.306-0.378,0.306-0.722c0-0.367-0.105-0.625-0.313-0.774s-0.603-0.225-1.179-0.225
		h-0.347V168.548L100.95,168.548z M108.301,171.76v-2.64l-1.953-3.13h0.791l1.508,2.503l1.502-2.503h0.789l-1.952,3.13v2.64H108.301
		L108.301,171.76z M114.452,171.268c0.315,0,0.616-0.06,0.9-0.179c0.285-0.12,0.542-0.295,0.771-0.523
		c0.226-0.226,0.398-0.481,0.517-0.768c0.118-0.287,0.177-0.591,0.177-0.911c0-0.322-0.059-0.631-0.179-0.922
		c-0.12-0.292-0.292-0.549-0.515-0.772c-0.226-0.226-0.481-0.397-0.767-0.516c-0.284-0.118-0.586-0.178-0.904-0.178
		c-0.32,0-0.624,0.06-0.91,0.178s-0.539,0.29-0.759,0.516c-0.226,0.229-0.398,0.487-0.517,0.776
		c-0.119,0.289-0.178,0.596-0.178,0.918c0,0.32,0.058,0.623,0.175,0.907c0.117,0.283,0.291,0.54,0.52,0.771
		c0.231,0.231,0.488,0.406,0.769,0.524C113.833,171.208,114.135,171.268,114.452,171.268L114.452,171.268z M117.534,168.887
		c0,0.413-0.077,0.802-0.229,1.166c-0.152,0.366-0.374,0.69-0.666,0.974c-0.292,0.284-0.628,0.502-1.007,0.656
		c-0.381,0.153-0.773,0.23-1.181,0.23c-0.407,0-0.798-0.077-1.176-0.23c-0.376-0.154-0.711-0.372-1.003-0.656
		c-0.294-0.286-0.518-0.611-0.672-0.978c-0.153-0.364-0.23-0.752-0.23-1.162c0-0.412,0.077-0.801,0.23-1.168
		c0.154-0.366,0.378-0.692,0.672-0.979c0.289-0.28,0.623-0.497,1.001-0.649c0.378-0.151,0.771-0.229,1.178-0.229
		c0.411,0,0.804,0.077,1.185,0.229c0.379,0.152,0.714,0.369,1.003,0.649c0.292,0.284,0.514,0.609,0.666,0.976
		C117.458,168.082,117.534,168.472,117.534,168.887L117.534,168.887z M118.909,165.99h0.694v3.591c0,0.584,0.124,1.011,0.372,1.284
		c0.249,0.272,0.638,0.41,1.169,0.41c0.531,0,0.919-0.138,1.168-0.41c0.249-0.273,0.373-0.7,0.373-1.284v-3.591h0.694v3.591
		c0,0.779-0.186,1.363-0.557,1.751c-0.373,0.387-0.932,0.581-1.68,0.581c-0.747,0-1.305-0.194-1.677-0.581
		c-0.371-0.388-0.557-0.972-0.557-1.751V165.99L118.909,165.99z M125.02,171.76v-5.77h1.355c0.386,0,0.669,0.021,0.848,0.065
		c0.18,0.044,0.339,0.118,0.476,0.223c0.171,0.133,0.303,0.313,0.397,0.538c0.095,0.225,0.143,0.473,0.143,0.746
		c0,0.473-0.132,0.832-0.396,1.077c-0.265,0.246-0.651,0.368-1.161,0.368h-0.123l2.203,2.752h-0.872l-2.106-2.752h-0.097v2.752
		H125.02L125.02,171.76z M125.689,166.571v1.929h0.523c0.537,0,0.896-0.068,1.077-0.207c0.182-0.138,0.272-0.378,0.272-0.723
		c0-0.369-0.093-0.628-0.28-0.777c-0.187-0.147-0.543-0.222-1.069-0.222H125.689L125.689,166.571z M131.994,171.76v-5.77h0.686
		v5.115h2.178v0.654H131.994L131.994,171.76z M135.957,171.76v-5.77h0.686v5.77H135.957L135.957,171.76z M138.313,171.76v-5.77
		h3.042v0.63h-2.356v1.653h2.356v0.638h-2.356v2.849H138.313L138.313,171.76z M142.679,171.76v-5.77h3.042v0.63h-2.356v1.653h2.356
		v0.638h-2.356v2.211h2.356v0.638H142.679L142.679,171.76z M149.259,168.558c0.375,0.16,0.659,0.372,0.849,0.638
		c0.19,0.265,0.286,0.579,0.286,0.941c0,0.529-0.169,0.957-0.507,1.281s-0.784,0.486-1.342,0.486c-0.455,0-0.835-0.115-1.144-0.348
		c-0.307-0.233-0.514-0.563-0.622-0.99l0.622-0.308c0.085,0.35,0.224,0.614,0.417,0.795c0.192,0.18,0.435,0.27,0.727,0.27
		c0.344,0,0.622-0.099,0.836-0.297c0.213-0.198,0.319-0.457,0.319-0.774c0-0.258-0.074-0.481-0.224-0.672
		c-0.148-0.191-0.371-0.352-0.671-0.483l-0.702-0.3c-0.383-0.16-0.67-0.365-0.856-0.618c-0.188-0.252-0.282-0.555-0.282-0.906
		c0-0.41,0.152-0.749,0.457-1.017s0.693-0.402,1.167-0.402c0.346,0,0.647,0.074,0.899,0.221c0.255,0.147,0.452,0.364,0.594,0.652
		l-0.567,0.361c-0.128-0.224-0.273-0.389-0.434-0.497c-0.16-0.109-0.341-0.164-0.543-0.164c-0.259,0-0.47,0.079-0.634,0.236
		s-0.246,0.357-0.246,0.603c0,0.204,0.063,0.382,0.189,0.531c0.126,0.15,0.322,0.282,0.587,0.397L149.259,168.558L149.259,168.558z
		 M152.592,171.76v-5.116h-1.63v-0.653h3.945v0.653h-1.622v5.116H152.592L152.592,171.76z M157.215,171.76v-2.64l-1.952-3.13h0.79
		l1.509,2.503l1.502-2.503h0.79l-1.953,3.13v2.64H157.215L157.215,171.76z M160.838,171.76v-5.77h0.686v5.115h2.179v0.654H160.838
		L160.838,171.76z M164.793,171.76v-5.77h3.042v0.63h-2.356v1.653h2.356v0.638h-2.356v2.211h2.356v0.638H164.793L164.793,171.76z
		 M171.782,171.444c0-0.129,0.046-0.237,0.139-0.33c0.091-0.092,0.203-0.138,0.332-0.138c0.128,0,0.237,0.046,0.329,0.138
		c0.091,0.093,0.136,0.201,0.136,0.33c0,0.131-0.044,0.242-0.134,0.333c-0.089,0.09-0.201,0.136-0.331,0.136
		c-0.132,0-0.243-0.046-0.335-0.136C171.828,171.687,171.782,171.575,171.782,171.444L171.782,171.444z M171.936,170.452v-4.591
		h0.629v4.591H171.936z"/>
</g>
</svg>
