<?xml version="1.0" encoding="UTF-8" standalone="no"?>
<svg width="98px" height="100px" viewBox="0 0 98 100" version="1.1" xmlns="http://www.w3.org/2000/svg" xmlns:xlink="http://www.w3.org/1999/xlink" xmlns:sketch="http://www.bohemiancoding.com/sketch/ns">
    <!-- Generator: Sketch 3.2.2 (9983) - http://www.bohemiancoding.com/sketch -->
    <title>shopping</title>
    <desc>Created with Sketch.</desc>
    <defs></defs>
    <g id="Page-1" stroke="none" stroke-width="1" fill="none" fill-rule="evenodd" sketch:type="MSPage">
        <g id="shopping" sketch:type="MSLayerGroup" transform="translate(0.000000, -1.000000)" fill="#4A4A4A">
            <g id="Page-1" sketch:type="MSShapeGroup">
                <g id="shopping">
                    <g id="Page-1">
                        <g id="shopping">
                            <g id="Page-1">
                                <g id="shopping">
                                    <g id="Group">
                                        <path d="M75.012,90.344 L97.915,85.842 L90.136,54.654 L85.299,55.603 L85.132,54.765 C84.739,52.814 83.275,51.302 81.462,50.728 L78.275,36.292 C78.031,35.417 77.479,34.66 76.733,34.152 L61.152,23.572 C61.121,23.551 61.093,23.531 61.062,23.511 L60.705,23.269 L60.686,23.298 C59.552,22.609 58.241,22.177 56.827,22.154 C53.717,22.048 51.149,23.772 49.866,26.286 L40.807,38.913 L24.665,43.743 L24.945,44.86 C23.078,45.233 21.595,46.524 20.981,48.314 L14.517,43.861 L0.085,63.259 L11.575,71.176 L13.478,48.062 L20.959,48.405 C20.814,48.848 20.638,49.284 20.616,49.773 L20.584,50.5 L15.413,50.263 L12.624,84.18 L35.943,85.246 L36.251,51.214 L31.283,50.988 L31.315,50.262 C31.342,49.756 31.202,49.29 31.093,48.818 L44.071,46.047 C44.952,45.823 45.725,45.294 46.254,44.555 L48.108,41.976 C48.149,45.427 48.447,48.359 48.447,48.359 C35.559,70.347 38.371,86.8 38.371,86.8 C38.371,86.8 39.46,85.95 42.259,85.448 L42.724,100.866 L48.464,101 L49.716,85.233 C51.022,85.339 52.451,85.506 54.042,85.771 C55.9,86.083 57.713,86.23 59.453,86.268 L66.517,100.071 L72.131,97.512 L67.385,85.66 C69.134,85.373 70.757,85.04 72.059,84.685 L67.268,56.936 L68.922,56.604 C66.725,51.726 64.32,48.933 64.32,48.933 C64.618,47.274 64.501,44.013 64.239,40.576 L64.329,35.061 L71.236,39.749 L75.76,52.498 C75.66,52.63 75.511,52.709 75.416,52.849 C74.625,54.04 74.341,55.468 74.625,56.872 L74.783,57.672 L69.667,58.678 L75.012,90.344 L75.012,90.344 Z M29.068,50.887 L22.794,50.6 L22.83,49.872 C22.893,48.36 24.046,47.207 25.488,46.975 L26.22,49.859 L28.964,49.274 C29.032,49.563 29.113,49.85 29.1,50.16 L29.068,50.887 L29.068,50.887 Z M76.797,56.436 C76.639,55.657 76.806,54.872 77.217,54.196 L81.268,53.049 C82.104,53.474 82.764,54.234 82.962,55.202 L83.125,56.034 L76.964,57.243 L76.797,56.436 L76.797,56.436 Z" id="Shape"></path>
                                        <path d="M58.793,19.555 C62.87,19.04 67.661,16.116 66.414,9.595 C64.751,0.882 55.796,1 55.796,1 C50.887,1.222 47.615,3.825 46.648,7.08 C46.336,8.151 46.603,9.051 47.068,9.799 C46.494,14.694 49.902,19.18 54.802,19.892 C56.19,20.093 57.536,19.944 58.793,19.555 L58.793,19.555 L58.793,19.555 Z" id="Shape"></path>
                                        <path d="M66.423,17.905 C69.257,20.974 73.244,22.023 78.52,17.874 C78.52,17.874 74.388,17.863 71.902,13.984 C69.42,10.106 63.589,14.836 66.423,17.905 L66.423,17.905 L66.423,17.905 Z" id="Shape"></path>
                                    </g>
                                </g>
                            </g>
                        </g>
                    </g>
                </g>
            </g>
        </g>
    </g>
</svg>