<?xml version="1.0" encoding="UTF-8" standalone="no"?>
<svg width="52px" height="96px" viewBox="0 0 52 96" version="1.1" xmlns="http://www.w3.org/2000/svg" xmlns:xlink="http://www.w3.org/1999/xlink" xmlns:sketch="http://www.bohemiancoding.com/sketch/ns">
    <!-- Generator: Sketch 3.2.2 (9983) - http://www.bohemiancoding.com/sketch -->
    <title>fashion</title>
    <desc>Created with Sketch.</desc>
    <defs></defs>
    <g id="Page-1" stroke="none" stroke-width="1" fill="none" fill-rule="evenodd" sketch:type="MSPage">
        <g id="fashion" sketch:type="MSLayerGroup" transform="translate(-46.000000, -16.000000)" fill-opacity="0.79" fill="#F6A623">
            <path d="M76.05,19.766 C75.299,20.083 74.625,20.519 74.031,21.074 C72.643,22.383 71.928,23.928 71.928,25.75 C71.928,27.574 72.642,29.119 74.031,30.388 C75.417,31.697 77.121,32.33 79.102,32.33 C81.083,32.33 82.79,31.697 84.175,30.388 C85.008,29.635 85.564,28.803 85.92,27.891 C86.395,28.09 86.829,28.406 87.228,28.803 C87.425,29.001 87.624,29.239 87.821,29.515 L87.821,28.882 C87.821,27.098 87.307,25.553 86.235,24.284 C86.197,24.205 86.118,24.126 86.079,24.087 C85.881,23.888 85.723,23.731 85.523,23.572 C85.404,23.453 85.246,23.334 85.127,23.255 C84.769,22.978 84.333,22.739 83.898,22.621 L83.898,21.788 C84.415,21.906 84.889,22.144 85.325,22.422 C85.565,22.58 85.8,22.738 86,22.937 L86.041,22.977 C86.158,23.057 86.235,23.136 86.356,23.254 C86.514,23.412 86.673,23.571 86.83,23.769 C88.018,25.155 88.614,26.86 88.614,28.882 C88.614,29.318 88.575,29.754 88.537,30.19 L88.537,30.269 L88.299,31.299 C88.261,31.339 88.261,31.379 88.261,31.419 C87.942,32.37 87.466,33.242 86.83,34.035 C86.316,34.629 85.761,35.105 85.167,35.462 C87.108,35.263 88.772,34.391 90.239,32.845 C91.747,31.141 92.498,29.119 92.539,26.822 C92.498,24.523 91.747,22.581 90.28,20.996 C90.004,20.718 89.763,20.44 89.487,20.243 C89.209,20.044 88.892,19.846 88.614,19.648 L88.219,19.41 C86.435,18.419 84.491,18.063 82.392,18.341 C81.363,18.459 80.291,18.736 79.222,19.173 L79.104,19.173 L79.023,19.173 C78.746,19.173 78.429,19.213 78.152,19.252 C77.597,19.292 77.082,19.411 76.566,19.569 C76.369,19.607 76.209,19.687 76.05,19.766 L76.05,19.766 L76.05,19.766 Z M80.887,19.371 L80.925,19.371 L80.887,19.371 L80.887,19.371 Z M81.243,20.202 L81.243,19.409 C83.781,18.894 86.042,19.528 88.06,21.312 L88.22,22.58 C88.141,22.5 88.06,22.422 88.019,22.382 C86.08,20.36 83.822,19.647 81.243,20.202 L81.243,20.202 L81.243,20.202 Z" id="Shape" sketch:type="MSShapeGroup"></path>
            <path d="M81.481,17.547 C82.473,17.428 83.386,17.428 84.295,17.507 C85.524,17.625 86.674,17.903 87.704,18.339 C87.86,18.379 88.018,18.458 88.18,18.538 C89.092,18.934 90.004,19.568 90.875,20.44 C92.498,22.184 93.291,24.324 93.331,26.822 C93.291,29.319 92.46,31.498 90.835,33.361 C89.132,35.224 87.07,36.174 84.731,36.294 C85.009,36.334 85.287,36.413 85.564,36.452 L87.108,36.452 C89.567,36.333 91.826,35.5 93.847,33.875 C96.185,31.814 97.294,29.318 97.256,26.386 C97.215,23.412 96.066,20.995 93.766,19.093 C92.102,17.705 90.239,16.873 88.179,16.595 C87.506,16.477 86.791,16.438 86.078,16.477 C84.416,16.438 82.869,16.794 81.481,17.547 L81.481,17.547 L81.481,17.547 Z" id="Shape" sketch:type="MSShapeGroup"></path>
            <path id="Shape" sketch:type="MSShapeGroup" d="M74.508,32.33 L74.467,32.33 L74.584,32.369 L74.508,32.33 L74.508,32.33 Z"></path>
            <path d="M73.913,40.216 C74.546,40.216 75.261,40.336 76.051,40.613 C77.44,41.089 78.511,41.841 79.183,42.912 C79.542,43.427 79.739,43.902 79.82,44.378 C80.65,43.862 81.403,43.586 81.998,43.545 L82.078,43.545 C82.752,43.586 83.347,43.981 83.782,44.695 C84.297,45.447 84.494,46.398 84.456,47.468 C84.417,48.38 84.139,49.212 83.703,49.885 L83.623,50.005 L83.861,63.162 L90.44,79.927 L93.691,79.927 L87.667,60.982 L87.862,39.225 L74.467,32.33 L73.395,31.815 L55.799,40.138 L49.974,25.83 L46.645,25.354 L46.645,25.394 L46.486,25.354 L53.5,46.242 L69.791,38.949 L69.592,42.199 C70.701,41.326 71.534,40.772 72.129,40.574 C72.683,40.336 73.278,40.216 73.913,40.216 L73.913,40.216 L73.913,40.216 Z" id="Shape" sketch:type="MSShapeGroup"></path>
            <path d="M59.882,68.634 L59.882,69.426 L61.23,69.506 L61.902,111.439 L65.469,111.439 L68.124,69.705 L68.361,69.705 L76.049,91.423 L91.667,110.686 L95.669,110.686 L80.292,89.124 L77.24,69.981 L78.825,70.02 C78.906,70.02 78.984,69.981 79.104,69.942 C79.142,69.902 79.181,69.821 79.222,69.704 C79.261,69.585 79.222,69.506 79.181,69.428 L76.923,65.621 L76.645,61.38 C76.645,61.302 76.645,61.261 76.605,61.222 L75.455,59.041 C77.24,57.02 78.746,54.365 79.894,51.115 C81.441,51.472 82.669,51.075 83.621,50.006 L69.591,44.774 L69.115,51.433 L65.628,54.048 L69.909,57.814 L74.784,59.518 L75.854,61.499 L76.05,64.114 L74.982,62.37 L74.071,62.37 L76.171,65.897 L76.21,65.897 C76.21,65.938 76.21,65.938 76.251,65.976 L78.153,69.227 L59.882,68.634 L59.882,68.634 Z" id="Shape" sketch:type="MSShapeGroup"></path>
            <path d="M67.769,57.458 L64.361,54.683 L60.396,60.113 L67.769,57.458 L67.769,57.458 Z" id="Shape" sketch:type="MSShapeGroup"></path>
        </g>
    </g>
</svg>