<?xml version="1.0" encoding="UTF-8" standalone="no"?>
<svg width="100px" height="82px" viewBox="0 0 100 82" version="1.1" xmlns="http://www.w3.org/2000/svg" xmlns:xlink="http://www.w3.org/1999/xlink" xmlns:sketch="http://www.bohemiancoding.com/sketch/ns">
    <!-- Generator: Sketch 3.2.2 (9983) - http://www.bohemiancoding.com/sketch -->
    <title>mymagazine</title>
    <desc>Created with Sketch.</desc>
    <defs></defs>
    <g id="Page-1" stroke="none" stroke-width="1" fill="none" fill-rule="evenodd" sketch:type="MSPage">
        <g id="mymagazine" sketch:type="MSLayerGroup" fill="#F6A623">
            <path d="M23.948,27.979 L36.947,27.979 L36.947,24.813 L23.948,24.813 L23.948,27.979 L23.948,27.979 Z M36.947,31.148 L13.836,31.148 L13.836,34.315 L36.947,34.315 L36.947,31.148 L36.947,31.148 Z M36.947,37.48 L13.836,37.48 L13.836,40.648 L36.947,40.648 L36.947,37.48 L36.947,37.48 Z M36.947,43.814 L13.836,43.814 L13.836,46.978 L36.947,46.978 L36.947,43.814 L36.947,43.814 Z M36.947,50.15 L13.836,50.15 L13.836,53.317 L36.947,53.317 L36.947,50.15 L36.947,50.15 Z" id="Shape" sketch:type="MSShapeGroup"></path>
            <g id="Group" sketch:type="MSShapeGroup">
                <path d="M97.389,0.513 L67.1,0.513 C57.193,0.513 52.35,2.845 49.996,5.263 C47.646,2.845 42.802,0.513 32.895,0.513 L2.605,0.513 C1.163,0.513 0,1.697 0,3.146 L0,74.841 C0,76.288 1.162,77.468 2.605,77.468 L2.892,77.468 L18.982,77.468 L32.895,77.468 C39.288,77.468 45.673,80.202 45.736,80.537 L45.774,80.537 C47.073,81.508 47.081,81.488 48.379,81.488 L51.845,81.488 C53.166,81.488 53.232,81.509 54.41,80.273 C54.62,79.912 61.225,77.467 67.098,77.467 L81.008,77.467 L97.104,77.467 L97.387,77.467 C98.833,77.467 99.998,76.287 99.998,74.84 L99.998,3.145 C100,1.697 98.835,0.513 97.389,0.513 L97.389,0.513 Z M46.071,10.039 L46.071,75.685 C46.071,75.685 40.513,72.617 33.015,72.617 L5.274,72.617 L5.274,5.37 L33.015,5.37 C47.529,5.37 46.071,10.039 46.071,10.039 L46.071,10.039 Z M78.909,46.998 C75.248,49.9 74.221,51.71 73.046,52.883 C71.874,51.71 70.892,49.838 67.184,46.998 C63.605,44.272 58.974,40.454 58.974,35.274 C58.974,27.664 68.355,24.737 73.046,31.774 C77.734,24.736 87.119,27.663 87.119,35.329 C87.119,40.515 82.434,44.211 78.909,46.998 L78.909,46.998 Z" id="Shape" fill-opacity="0.79"></path>
                <path d="M23.948,27.979 L36.947,27.979 L36.947,24.813 L23.948,24.813 L23.948,27.979 L23.948,27.979 Z M13.836,31.148 L13.836,34.315 L26.7044506,34.315 L36.947,34.315 L36.947,31.148 L13.836,31.148 Z M36.947,37.48 L13.836,37.48 L13.836,40.648 L36.947,40.648 L36.947,37.48 L36.947,37.48 Z M36.947,43.814 L13.836,43.814 L13.836,46.978 L36.947,46.978 L36.947,43.814 L36.947,43.814 Z M36.947,50.15 L13.836,50.15 L13.836,53.317 L36.947,53.317 L36.947,50.15 L36.947,50.15 Z" id="Shape" fill-opacity="0.6"></path>
            </g>
        </g>
    </g>
</svg>